#Comment line ignore any data following # character 
#Hierarchical Translation and Rotation (.htr) file 
[Header]	
#Header keywords are followed by a single value 
FileType HTR		#Single word string
DataType HTRS		#Translation followed by rotation and scale data
FileVersion 1		#integer
NumSegments 64		#integer
NumFrames 3		#integer
DataFrameRate 30		#integer, data frame rate in this file
EulerRotationOrder ZYX
CalibrationUnits mm
RotationUnits Degrees
GlobalAxisofGravity Y
BoneLengthAxis Y
ScaleFactor 1.00
[SegmentNames&Hierarchy]
#CHILD	PARENT
Pinger_Root GLOBAL
Pelvis Pinger_Root
L_Hip Pelvis
R_Hip Pelvis
Rear_Leg01 Pelvis
Spine1 Pelvis
L_Leg01 L_Hip
L_Leg02 L_Leg01
L_Leg03 L_Leg02
L_Foot L_Leg03
L_Toe1_01 L_Foot
L_Toe2_01 L_Foot
L_Toe3_01 L_Foot
planeAlignerLeft L_Foot
L_Toe1_02 L_Toe1_01
L_Toe1_03 L_Toe1_02
L_Toe2_02 L_Toe2_01
L_Toe2_03 L_Toe2_02
L_Toe3_02 L_Toe3_01
L_Toe3_03 L_Toe3_02
planeLockWeightLeft planeAlignerLeft
R_Leg01 R_Hip
R_Leg02 R_Leg01
R_Leg03 R_Leg02
R_Foot R_Leg03
planeAlignerRight R_Foot
R_Toe1_01 R_Foot
R_Toe2_01 R_Foot
R_Toe3_01 R_Foot
planeLockWeightRight planeAlignerRight
R_Toe1_02 R_Toe1_01
R_Toe1_03 R_Toe1_02
R_Toe2_02 R_Toe2_01
R_Toe2_03 R_Toe2_02
R_Toe3_02 R_Toe3_01
R_Toe3_03 R_Toe3_02
Rear_Leg02 Rear_Leg01
Rear_Leg03 Rear_Leg02
Rear_Leg04 Rear_Leg03
Rear_Foot Rear_Leg04
planeAlignerCenter Rear_Foot
Rear_Toe1_01 Rear_Foot
Rear_Toe2_01 Rear_Foot
Rear_Toe3_01 Rear_Foot
planeLockWeightCenter planeAlignerCenter
Rear_Toe1_02 Rear_Toe1_01
Rear_Toe1_03 Rear_Toe1_02
Rear_Toe2_02 Rear_Toe2_01
Rear_Toe2_03 Rear_Toe2_02
Rear_Toe3_02 Rear_Toe3_01
Rear_Toe3_03 Rear_Toe3_02
Back_Bone Spine1
Head Spine1
Motor_Bone Back_Bone
Ping_Mechanism Back_Bone
BN_LookIK Head
bottomMouth Head
L_Mouth01 Head
L_mouthFront Head
mouthGun Head
R_Mouth01 Head
R_mouthFront Head
TopMouth Head
weapon_bone Head
[BasePosition]
#SegmentName Tx, Ty, Tz, Rx, Ry, Rz, BoneLength
Pinger_Root 0.000000 0.000000 0.000000 -90.000000 0.000000 0.000000 10.000000 
Pelvis 0.000000 0.000000 0.000000 0.000000 0.000000 0.000000 10.000000 
L_Hip 0.000000 0.000000 0.000000 0.000000 0.000000 0.000000 10.000000 
R_Hip 0.000000 0.000000 0.000000 0.000000 0.000000 0.000000 10.000000 
Rear_Leg01 0.000000 0.000000 0.000000 0.000000 0.000000 0.000000 10.000000 
Spine1 0.000000 0.000000 0.000000 0.000000 0.000000 0.000000 10.000000 
L_Leg01 0.000000 0.000000 0.000000 0.000000 0.000000 0.000000 10.000000 
L_Leg02 0.000000 0.000000 0.000000 0.000000 0.000000 0.000000 10.000000 
L_Leg03 0.000000 0.000000 0.000000 0.000000 0.000000 0.000000 10.000000 
L_Foot 0.000000 0.000000 0.000000 0.000000 0.000000 0.000000 10.000000 
L_Toe1_01 0.000000 0.000000 0.000000 0.000000 0.000000 0.000000 10.000000 
L_Toe2_01 0.000000 0.000000 0.000000 0.000000 0.000000 0.000000 10.000000 
L_Toe3_01 0.000000 0.000000 0.000000 0.000000 0.000000 0.000000 10.000000 
planeAlignerLeft 0.000000 0.000000 0.000000 0.000000 0.000000 0.000000 10.000000 
L_Toe1_02 0.000000 0.000000 0.000000 0.000000 0.000000 0.000000 10.000000 
L_Toe1_03 0.000000 0.000000 0.000000 0.000000 0.000000 0.000000 10.000000 
L_Toe2_02 0.000000 0.000000 0.000000 0.000000 0.000000 0.000000 10.000000 
L_Toe2_03 0.000000 0.000000 0.000000 0.000000 0.000000 0.000000 10.000000 
L_Toe3_02 0.000000 0.000000 0.000000 0.000000 0.000000 0.000000 10.000000 
L_Toe3_03 0.000000 0.000000 0.000000 0.000000 0.000000 0.000000 10.000000 
planeLockWeightLeft 0.000000 0.000000 0.000000 0.000000 0.000000 0.000000 10.000000 
R_Leg01 0.000000 0.000000 0.000000 0.000000 0.000000 0.000000 10.000000 
R_Leg02 0.000000 0.000000 0.000000 0.000000 0.000000 0.000000 10.000000 
R_Leg03 0.000000 0.000000 0.000000 0.000000 0.000000 0.000000 10.000000 
R_Foot 0.000000 0.000000 0.000000 0.000000 0.000000 0.000000 10.000000 
planeAlignerRight 0.000000 0.000000 0.000000 0.000000 0.000000 0.000000 10.000000 
R_Toe1_01 0.000000 0.000000 0.000000 0.000000 0.000000 0.000000 10.000000 
R_Toe2_01 0.000000 0.000000 0.000000 0.000000 0.000000 0.000000 10.000000 
R_Toe3_01 0.000000 0.000000 0.000000 0.000000 0.000000 0.000000 10.000000 
planeLockWeightRight 0.000000 0.000000 0.000000 0.000000 0.000000 0.000000 10.000000 
R_Toe1_02 0.000000 0.000000 0.000000 0.000000 0.000000 0.000000 10.000000 
R_Toe1_03 0.000000 0.000000 0.000000 0.000000 0.000000 0.000000 10.000000 
R_Toe2_02 0.000000 0.000000 0.000000 0.000000 0.000000 0.000000 10.000000 
R_Toe2_03 0.000000 0.000000 0.000000 0.000000 0.000000 0.000000 10.000000 
R_Toe3_02 0.000000 0.000000 0.000000 0.000000 0.000000 0.000000 10.000000 
R_Toe3_03 0.000000 0.000000 0.000000 0.000000 0.000000 0.000000 10.000000 
Rear_Leg02 0.000000 0.000000 0.000000 0.000000 0.000000 0.000000 10.000000 
Rear_Leg03 0.000000 0.000000 0.000000 0.000000 0.000000 0.000000 10.000000 
Rear_Leg04 0.000000 0.000000 0.000000 0.000000 0.000000 0.000000 10.000000 
Rear_Foot 0.000000 0.000000 0.000000 0.000000 0.000000 0.000000 10.000000 
planeAlignerCenter 0.000000 0.000000 0.000000 0.000000 0.000000 0.000000 10.000000 
Rear_Toe1_01 0.000000 0.000000 0.000000 0.000000 0.000000 0.000000 10.000000 
Rear_Toe2_01 0.000000 0.000000 0.000000 0.000000 0.000000 0.000000 10.000000 
Rear_Toe3_01 0.000000 0.000000 0.000000 0.000000 0.000000 0.000000 10.000000 
planeLockWeightCenter 0.000000 0.000000 0.000000 0.000000 0.000000 0.000000 10.000000 
Rear_Toe1_02 0.000000 0.000000 0.000000 0.000000 0.000000 0.000000 10.000000 
Rear_Toe1_03 0.000000 0.000000 0.000000 0.000000 0.000000 0.000000 10.000000 
Rear_Toe2_02 0.000000 0.000000 0.000000 0.000000 0.000000 0.000000 10.000000 
Rear_Toe2_03 0.000000 0.000000 0.000000 0.000000 0.000000 0.000000 10.000000 
Rear_Toe3_02 0.000000 0.000000 0.000000 0.000000 0.000000 0.000000 10.000000 
Rear_Toe3_03 0.000000 0.000000 0.000000 0.000000 0.000000 0.000000 10.000000 
Back_Bone 0.000000 0.000000 0.000000 0.000000 0.000000 0.000000 10.000000 
Head 0.000000 0.000000 0.000000 0.000000 0.000000 0.000000 10.000000 
Motor_Bone 0.000000 0.000000 0.000000 0.000000 0.000000 0.000000 10.000000 
Ping_Mechanism 0.000000 0.000000 0.000000 0.000000 0.000000 0.000000 10.000000 
BN_LookIK 0.000000 0.000000 0.000000 0.000000 0.000000 0.000000 10.000000 
bottomMouth 0.000000 0.000000 0.000000 0.000000 0.000000 0.000000 10.000000 
L_Mouth01 0.000000 0.000000 0.000000 0.000000 0.000000 0.000000 10.000000 
L_mouthFront 0.000000 0.000000 0.000000 0.000000 0.000000 0.000000 10.000000 
mouthGun 0.000000 0.000000 0.000000 0.000000 0.000000 0.000000 10.000000 
R_Mouth01 0.000000 0.000000 0.000000 0.000000 0.000000 0.000000 10.000000 
R_mouthFront 0.000000 0.000000 0.000000 0.000000 0.000000 0.000000 10.000000 
TopMouth 0.000000 0.000000 0.000000 0.000000 0.000000 0.000000 10.000000 
weapon_bone 0.000000 0.000000 0.000000 0.000000 0.000000 0.000000 10.000000 
#Beginning of Data. Separated by tabs
#Fr	Tx	Ty	Tz	Rx	Ry	Rz	SF
[Pinger_Root]
25 0.000000 0.000000 0.000000 -0.000073 -0.000021 -32.395649 0.000000
26 0.000000 0.000000 0.000000 -0.000072 -0.000023 -34.699970 0.000000
27 0.000000 0.000000 0.000000 -0.000072 -0.000024 -36.993031 0.000000
[Pelvis]
25 -421.690308 338.533600 4482.744629 -179.719147 -83.698830 145.983063 4515.243652
26 -332.122437 297.785919 4494.672852 -154.866470 -84.976952 119.595428 4516.753906
27 -235.898285 282.189301 4492.842285 -140.609085 -85.151314 104.693413 4507.872070
[L_Hip]
25 5.766392 125.831482 872.656799 142.164932 -69.279594 143.253891 881.701050
26 5.766392 125.831482 872.656799 132.355804 -71.152527 153.253326 881.701050
27 5.766392 125.831482 872.656799 117.897469 -72.898758 168.053848 881.701050
[R_Hip]
25 5.765438 125.836372 -872.654907 38.096470 49.430454 125.689621 881.699829
26 5.765438 125.836372 -872.654907 38.143864 49.739292 125.730850 881.699829
27 5.765438 125.836372 -872.654907 38.191895 50.048111 125.772743 881.699829
[Rear_Leg01]
25 -192.298416 -925.602966 -0.001907 131.391678 33.863628 -175.480469 945.367432
26 -192.298416 -925.602966 -0.001907 125.828072 25.035135 172.336441 945.367432
27 -192.298416 -925.602966 -0.001907 127.877563 22.487587 169.746765 945.367432
[Spine1]
25 290.604584 5.007505 0.000477 -4.823400 13.911572 27.700457 290.647736
26 290.604584 5.007505 0.000477 -5.324053 11.628509 25.445066 290.647736
27 290.604584 5.007505 0.000477 -5.626621 10.403712 24.482527 290.647736
[L_Leg01]
25 761.932007 -0.002384 -0.069261 26.821196 1.299388 -14.864633 761.932068
26 761.932007 -0.002384 -0.069261 27.000879 -2.821384 -15.584004 761.932068
27 761.932007 -0.002384 -0.069261 28.804892 -6.489606 -16.976728 761.932068
[L_Leg02]
25 1441.140503 -0.000954 -0.000715 1.062111 -0.224669 -128.886047 1441.140503
26 1441.140503 -0.000954 -0.000715 0.363224 -0.038436 -125.570091 1441.140503
27 1441.140503 -0.000954 -0.000715 -0.323725 0.187896 -122.256615 1441.140503
[L_Leg03]
25 1686.963989 -0.000715 -0.000954 0.012199 -0.005312 106.585442 1686.963989
26 1686.963989 -0.000715 -0.000954 0.029379 -0.010253 102.501976 1686.963989
27 1686.963989 -0.000715 -0.000954 0.036515 -0.010409 100.580154 1686.963989
[L_Foot]
25 3041.570068 -30.715107 11.297464 -17.307661 36.990726 56.685528 3041.746094
26 3041.570068 -30.715107 11.297464 -20.515429 40.138206 54.787621 3041.746094
27 3041.570068 -30.715107 11.297464 -23.438768 42.442265 52.202698 3041.746094
[L_Toe1_01]
25 -188.216690 -224.732346 -21.137953 93.719086 -6.862505 -171.970444 293.899567
26 -188.216690 -224.732346 -21.137953 93.719086 -6.862507 -171.970444 293.899567
27 -188.216690 -224.732346 -21.137953 93.719086 -6.862507 -171.970444 293.899567
[L_Toe2_01]
25 200.746536 -219.926590 148.838394 -90.024002 -26.311703 -52.677628 332.896027
26 200.746536 -219.926590 148.838394 -90.023987 -26.311703 -52.677628 332.896027
27 200.746536 -219.926590 148.838394 -90.023987 -26.311703 -52.677628 332.896027
[L_Toe3_01]
25 188.832520 -219.859131 -191.078659 -99.788055 13.839008 -67.673027 347.140900
26 188.832520 -219.859131 -191.078659 -99.788055 13.839005 -67.673027 347.140900
27 188.832520 -219.859131 -191.078659 -99.788063 13.839005 -67.673035 347.140900
[planeAlignerLeft]
25 32.991810 -593.020874 101.088478 169.306686 -76.298271 89.968506 602.479126
26 32.992027 -593.020813 101.088463 169.306686 -76.298271 89.968506 602.479065
27 32.992249 -593.020813 101.088448 169.306686 -76.298271 89.968506 602.479126
[L_Toe1_02]
25 413.761139 0.000477 0.000000 0.001385 -25.891138 0.001385 413.761139
26 413.761139 0.000477 0.000000 0.001385 -25.886061 0.001385 413.761139
27 413.761139 0.000477 0.000000 0.001385 -25.880983 0.001385 413.761139
[L_Toe1_03]
25 464.317322 0.000358 -0.000089 0.003734 53.359104 0.003734 464.317322
26 464.317322 0.000358 -0.000089 0.003734 53.359097 0.003734 464.317322
27 464.317322 0.000358 -0.000089 0.003734 53.359097 0.003734 464.317322
[L_Toe2_02]
25 342.235809 -0.000477 0.000238 0.001188 -72.402016 0.001188 342.235809
26 342.235809 -0.000477 0.000238 0.001188 -72.402016 0.001188 342.235809
27 342.235809 -0.000477 0.000238 0.001188 -72.402016 0.001188 342.235809
[L_Toe2_03]
25 420.210846 -0.000715 0.000000 0.029090 85.375565 0.029090 420.210846
26 420.210846 -0.000715 0.000000 0.029090 85.375511 0.029090 420.210846
27 420.210846 -0.000715 0.000000 0.029090 85.375511 0.029090 420.210846
[L_Toe3_02]
25 329.270111 0.000954 0.000000 0.001178 -80.480331 0.001178 329.270111
26 329.270111 0.000954 0.000000 0.001178 -80.480331 0.001178 329.270111
27 329.270111 0.000954 0.000000 0.001178 -80.480354 0.001178 329.270111
[L_Toe3_03]
25 439.137451 -0.001907 0.000954 -179.995956 78.605698 -179.992447 439.137451
26 439.137451 -0.001907 0.000954 -179.995956 78.605698 -179.992447 439.137451
27 439.137451 -0.001907 0.000954 -179.995956 78.605721 -179.992447 439.137451
[planeLockWeightLeft]
25 999.999084 0.098267 0.076147 -0.011826 -0.004376 0.005620 999.999084
26 999.999084 0.098267 0.076147 -0.011826 -0.004376 0.005620 999.999084
27 999.999084 0.098267 0.076146 -0.011826 -0.004376 0.005620 999.999084
[R_Leg01]
25 761.455627 -0.001907 -0.000358 130.005814 18.801201 38.633186 761.455688
26 761.455627 -0.001907 -0.000358 127.027931 9.498713 32.556931 761.455688
27 761.455627 -0.001907 -0.000358 125.340599 1.954408 28.692789 761.455688
[R_Leg02]
25 1441.140625 0.000000 -0.000238 -0.222764 0.175458 -82.110611 1441.140625
26 1441.140625 0.000000 -0.000238 -0.326653 0.148118 -93.676453 1441.140625
27 1441.140625 0.000000 -0.000238 -0.699672 0.162816 -103.843552 1441.140625
[R_Leg03]
25 1686.963989 0.000954 0.001431 -0.007489 0.004738 108.156723 1686.963989
26 1686.963989 0.000954 0.001431 0.002307 -0.000433 111.271606 1686.963989
27 1686.963989 0.000954 0.001431 0.010061 -0.003253 113.173073 1686.963989
[R_Foot]
25 3041.560059 -30.531288 -11.204481 10.320139 -37.248055 38.306313 3041.734131
26 3041.560059 -30.531288 -11.204481 8.314554 -37.266102 41.247593 3041.734131
27 3041.560059 -30.531288 -11.204481 6.304878 -36.758148 44.848640 3041.734131
[planeAlignerRight]
25 -126.606705 -483.778778 -378.504120 -29.939707 -65.453072 -70.522156 627.165466
26 -128.520508 -488.828705 -377.247009 -30.457514 -65.248352 -70.024780 630.703064
27 -126.624451 -508.978241 -376.514435 -30.151499 -65.288368 -70.316208 645.643677
[R_Toe1_01]
25 -188.383347 -224.864899 21.052242 70.273170 1.641006 -175.895370 294.101532
26 -188.383347 -224.864899 21.052242 70.145767 1.302561 -175.503296 294.101532
27 -188.383347 -224.864899 21.052242 70.032799 1.621135 -174.208755 294.101532
[R_Toe2_01]
25 200.637817 -220.002121 -148.787384 -86.282997 41.181934 -53.101131 332.857574
26 200.637817 -220.002121 -148.787384 -86.670609 41.313728 -53.582615 332.857574
27 200.637817 -220.002121 -148.787384 -86.848465 40.597969 -54.626110 332.857574
[R_Toe3_01]
25 188.606735 -220.092957 191.126343 -71.944450 -1.328135 -71.794342 347.192566
26 188.606735 -220.092957 191.126343 -72.185356 -1.058039 -72.130440 347.192566
27 188.606735 -220.092957 191.126343 -71.925644 -0.866963 -73.520424 347.192566
[planeLockWeightRight]
25 1000.000000 -0.000279 0.075852 -0.011823 -0.004379 -0.000027 1000.000000
26 1000.000000 -0.000270 0.075854 -0.011823 -0.004379 -0.000027 1000.000000
27 999.999939 -0.000262 0.075857 -0.011823 -0.004379 -0.000027 999.999939
[R_Toe1_02]
25 413.762085 0.000477 -0.000119 0.001396 -24.370993 0.001396 413.762085
26 413.762085 0.000477 -0.000119 0.001396 -24.382809 0.001396 413.762085
27 413.762085 0.000477 -0.000119 0.001396 -24.394609 0.001396 413.762085
[R_Toe1_03]
25 464.317810 0.000000 0.001088 0.007233 71.325005 0.007233 464.317810
26 464.317810 0.000000 0.001088 0.007153 71.112083 0.007153 464.317810
27 464.317810 0.000000 0.001088 0.006879 70.353958 0.006879 464.317810
[R_Toe2_02]
25 342.234741 -0.000954 0.000238 0.001194 -68.628502 0.001194 342.234741
26 342.234741 -0.000954 0.000238 0.001195 -68.496826 0.001195 342.234741
27 342.234741 -0.000954 0.000238 0.001196 -67.756569 0.001196 342.234741
[R_Toe2_03]
25 420.210846 0.000715 -0.000268 0.010027 76.556213 0.010027 420.210846
26 420.210846 0.000715 -0.000268 0.009816 76.266670 0.009816 420.210846
27 420.210846 0.000715 -0.000268 0.008797 74.665764 0.008797 420.210846
[R_Toe3_02]
25 329.270355 -0.000477 -0.000954 0.001182 -76.690651 0.001182 329.270355
26 329.270355 -0.000477 -0.000954 0.001182 -76.331642 0.001182 329.270355
27 329.270355 -0.000477 -0.000954 0.001184 -75.066414 0.001184 329.270355
[R_Toe3_03]
25 439.137939 0.000238 0.001431 -0.065516 88.966560 -0.062019 439.137939
26 439.137939 0.000238 0.001431 -0.034466 87.986473 -0.030969 439.137939
27 439.137939 0.000238 0.001431 -0.014145 84.684486 -0.010644 439.137939
[Rear_Leg02]
25 1162.777710 -0.029802 0.005960 0.086517 -0.288667 -101.966049 1162.777710
26 1162.777710 -0.029802 0.005960 -0.242949 2.387000 -120.921394 1162.777710
27 1162.777710 -0.029802 0.005960 -0.787283 3.553272 -131.778748 1162.777710
[Rear_Leg03]
25 607.192505 -0.013351 -0.073195 0.006503 -0.002022 62.762569 607.192505
26 607.192505 -0.013351 -0.073195 0.006491 -0.002061 63.435780 607.192505
27 607.192505 -0.013351 -0.073195 0.010600 -0.004877 65.770447 607.192505
[Rear_Leg04]
25 995.874512 -0.020504 -0.011921 -0.040104 -0.016222 55.226585 995.874573
26 995.874512 -0.020504 -0.011921 -0.040288 -0.015760 56.542225 995.874573
27 995.874512 -0.020504 -0.011921 -0.043411 -0.018369 61.193352 995.874573
[Rear_Foot]
25 3096.176270 -0.067472 -0.041425 0.000000 89.624130 -172.045181 3096.176270
26 3096.176270 -0.067472 -0.041425 161.578064 84.004128 -5.420603 3096.176270
27 3096.176270 -0.067472 -0.041425 152.806610 83.649986 -14.848790 3096.176270
[planeAlignerCenter]
25 98.930069 -35.512962 -790.860718 15.986826 18.378969 -163.679703 797.815125
26 110.825516 -46.136147 -926.813232 16.502903 25.568888 -163.648666 934.555298
27 110.770874 -47.039185 -913.559570 15.175275 24.555153 -166.822876 921.452087
[Rear_Toe1_01]
25 0.653352 83.966492 -371.173737 -22.835773 45.524498 92.547722 380.553192
26 0.653352 83.966492 -371.173737 -31.014780 49.484417 87.731087 380.553192
27 0.653352 83.966492 -371.173737 -25.685085 59.946686 88.933151 380.553192
[Rear_Toe2_01]
25 178.200760 -294.826019 -362.060547 8.958170 20.594690 -40.883480 499.765686
26 178.200760 -294.826019 -362.060547 16.893785 23.416780 -40.925255 499.765686
27 178.200760 -294.826019 -362.060547 17.141064 38.842564 -49.738079 499.765686
[Rear_Toe3_01]
25 -153.359680 -308.780914 -362.060852 26.446123 35.341557 -81.607704 499.952881
26 -153.359680 -308.780914 -362.060852 31.673801 35.524410 -84.285789 499.952881
27 -153.359680 -308.780914 -362.060852 33.455231 53.405357 -82.695786 499.952881
[planeLockWeightCenter]
25 843.750427 0.000000 0.076361 -0.011814 -0.004373 -0.000015 843.750427
26 500.000641 0.000000 0.076365 -0.011814 -0.004373 -0.000015 500.000671
27 156.250534 0.000000 0.076370 -0.011814 -0.004373 -0.000015 156.250549
[Rear_Toe1_02]
25 379.707825 0.194073 0.000477 -0.000232 -31.543112 0.006929 379.707855
26 379.707825 0.194073 0.000477 0.000190 -14.548060 0.011619 379.707855
27 379.707825 0.194073 0.000477 -0.000279 -32.185982 0.006955 379.707855
[Rear_Toe1_03]
25 500.129700 0.165701 0.000119 -0.000175 51.188553 0.007240 500.129761
26 500.129700 0.165701 0.000119 -0.001144 14.995299 0.016487 500.129761
27 500.129700 0.165701 0.000119 0.000190 54.602280 0.007531 500.129761
[Rear_Toe2_02]
25 340.494507 0.000238 -0.000954 0.001191 -70.295456 0.001191 340.494507
26 340.494507 0.000238 -0.000954 0.001188 -72.316223 0.001188 340.494507
27 340.494507 0.000238 -0.000954 0.001174 -85.559448 0.001174 340.494507
[Rear_Toe2_03]
25 433.103577 0.000000 0.000238 0.006919 70.468971 0.006919 433.103546
26 433.103577 0.000000 0.000238 0.008281 73.704720 0.008281 433.103546
27 433.103577 0.000000 0.000238 179.986832 79.780403 179.986832 433.103546
[Rear_Toe3_02]
25 340.494141 -0.000358 -0.000477 -0.002444 -53.843018 -0.002444 340.494171
26 340.494141 -0.000358 -0.000477 0.002623 -26.023138 -0.003978 340.494171
27 340.494141 -0.000358 -0.000477 -0.002494 -47.381229 -0.002494 340.494171
[Rear_Toe3_03]
25 433.103577 0.001431 -0.000238 0.000240 48.678974 -0.003497 433.103546
26 433.103577 0.001431 -0.000238 0.006315 21.004770 -0.002171 433.103546
27 433.103577 0.001431 -0.000238 0.000518 41.507427 -0.003317 433.103546
[Back_Bone]
25 1312.175781 -701.934692 0.000954 0.000023 -0.000007 -85.606667 1488.125488
26 1312.175781 -701.934692 0.000954 0.000023 -0.000007 -85.606667 1488.125488
27 1312.175781 -701.934692 0.000954 0.000023 -0.000007 -85.606667 1488.125488
[Head]
25 1406.159424 809.709290 0.001431 0.000008 0.000003 7.767519 1622.625488
26 1406.159424 809.709290 0.001431 0.000008 0.000003 7.767519 1622.625488
27 1406.159424 809.709290 0.001431 0.000008 0.000003 7.767519 1622.625488
[Motor_Bone]
25 1158.364380 -417.834747 0.000477 -0.095283 2.780833 -105.756058 1231.419434
26 1158.364380 -417.834747 0.000477 -0.088044 5.070215 -105.617462 1231.419434
27 1158.364380 -417.834747 0.000477 -0.092811 4.476203 -105.654610 1231.419434
[Ping_Mechanism]
25 1212.276855 -426.857483 -32.689548 0.000103 -0.000053 82.120995 1285.648071
26 1222.341309 -435.159851 -26.136944 0.000103 -0.000053 82.120995 1297.754028
27 1225.775269 -437.542206 -22.371113 0.000103 -0.000053 82.120995 1301.717529
[BN_LookIK]
25 193.241119 1380.371704 -0.002861 0.000000 89.965736 -31.038179 1393.832153
26 193.241119 1380.371704 -0.002861 0.000000 89.965736 -31.038179 1393.832153
27 193.241119 1380.371704 -0.002861 0.000000 89.965736 -31.038179 1393.832153
[bottomMouth]
25 -435.092926 615.759399 -0.000954 -0.000022 0.000016 73.527184 753.966492
26 -435.092926 615.759399 -0.000954 -0.000022 0.000016 73.527184 753.966492
27 -435.092926 615.759399 -0.000954 -0.000022 0.000016 73.527184 753.966492
[L_Mouth01]
25 554.440979 7.658243 838.222046 150.204178 23.759130 109.605339 1005.027161
26 554.440979 7.658243 838.222046 150.204178 23.759130 109.605339 1005.027161
27 554.440979 7.658243 838.222046 150.204178 23.759130 109.605339 1005.027161
[L_mouthFront]
25 551.629089 934.514771 339.150421 0.000081 2.804060 79.119301 1136.941284
26 551.629089 934.514771 339.150421 0.000081 2.804060 79.119301 1136.941284
27 551.629089 934.514771 339.150421 0.000081 2.804060 79.119301 1136.941284
[mouthGun]
25 55.332661 1627.420898 0.000000 0.000023 0.000009 -11.038128 1628.361328
26 55.332661 1627.420898 0.000000 0.000023 0.000009 -11.038128 1628.361328
27 55.332661 1627.420898 0.000000 0.000023 0.000009 -11.038128 1628.361328
[R_Mouth01]
25 554.442383 7.659197 -838.223938 29.795891 -23.759109 109.605331 1005.029541
26 554.442383 7.659197 -838.223938 29.795891 -23.759109 109.605331 1005.029541
27 554.442383 7.659197 -838.223938 29.795891 -23.759109 109.605331 1005.029541
[R_mouthFront]
25 551.629089 934.514282 -339.151367 0.000029 -2.803930 79.119133 1136.941162
26 551.629089 934.514282 -339.151367 0.000029 -2.803930 79.119133 1136.941162
27 551.629089 934.514282 -339.151367 0.000029 -2.803930 79.119133 1136.941162
[TopMouth]
25 461.269867 -56.106091 -0.008583 -0.000059 -0.000268 92.025169 464.669525
26 461.269867 -56.106091 -0.008583 -0.000059 -0.000268 92.025169 464.669525
27 461.269867 -56.106091 -0.008583 -0.000059 -0.000268 92.025169 464.669525
[weapon_bone]
25 -987.239868 1448.372803 0.001431 0.000000 89.965736 -31.038221 1752.833740
26 -987.239868 1448.372803 0.001431 0.000000 89.965736 -31.038221 1752.833740
27 -987.239868 1448.372803 0.001431 0.000000 89.965736 -31.038221 1752.833740
